ply
format ascii 1.0
element vertex 8
property double x
property double y
property double z
property uchar red
property uchar green
property uchar blue
element face 12
property list uint8 int32 vertex_indices
end_header
-10 -10 -10 0 0 0
10 -10 -10 255 0 0
10 10 -10 255 255 0
-10 10 -10 0 255 0
-10 -10 10 0 0 255
10 -10 10 255 0 255
10 10 10 255 255 255
-10 10 10 0 255 255
3 0 2 1
3 0 3 2
3 4 5 6
3 4 6 7
3 0 1 4
3 1 5 4
3 0 4 3
3 3 4 7
3 2 3 6
3 3 7 6
3 1 2 5
3 2 6 5
